<?xml version="1.0" encoding="UTF-8" standalone="no"?>
<!-- Created with Inkscape (http://www.inkscape.org/) -->

<svg
   width="100pt"
   height="100pt"
   viewBox="0 0 35.277777 35.277778"
   version="1.1"
   id="svg5"
   inkscape:version="1.1.2 (0a00cf5339, 2022-02-04)"
   sodipodi:docname="icon.svg"
   xmlns:inkscape="http://www.inkscape.org/namespaces/inkscape"
   xmlns:sodipodi="http://sodipodi.sourceforge.net/DTD/sodipodi-0.dtd"
   xmlns="http://www.w3.org/2000/svg"
   xmlns:svg="http://www.w3.org/2000/svg">
  <sodipodi:namedview
     id="namedview7"
     pagecolor="#797979"
     bordercolor="#000000"
     borderopacity="1"
     inkscape:pageshadow="2"
     inkscape:pageopacity="0"
     inkscape:pagecheckerboard="true"
     inkscape:document-units="pt"
     showgrid="false"
     showguides="false"
     units="pt"
     width="283.46457pt"
     inkscape:showpageshadow="false"
     inkscape:zoom="4.3994184"
     inkscape:cx="66.940667"
     inkscape:cy="93.080485"
     inkscape:window-width="1551"
     inkscape:window-height="1082"
     inkscape:window-x="498"
     inkscape:window-y="911"
     inkscape:window-maximized="0"
     inkscape:current-layer="layer1" />
  <defs
     id="defs2" />
  <g
     inkscape:label="Layer 1"
     inkscape:groupmode="layer"
     id="layer1">
    <path
       id="path32743"
       style="fill:#b3923a;fill-opacity:1;stroke:#ffffff;stroke-width:0.352744;stroke-miterlimit:4;stroke-dasharray:none;stroke-opacity:1"
       d="m 17.637868,0.17637153 c -0.604633,0 -1.091599,0.48696524 -1.091599,1.09159827 v 1.8765705 c 0.155069,0.6409864 0.264854,1.2885593 0.312761,1.948114 A 12.600573,12.600572 0 0 0 9.2341906,8.2672858 C 8.9068349,7.8430509 8.6269074,7.3734594 8.3960718,6.8527041 L 6.8343079,5.2909445 c -0.4275377,-0.4275418 -1.115828,-0.4275418 -1.5433656,0 -0.4275383,0.427538 -0.4275415,1.1158274 0,1.5433654 L 6.9181195,8.4614856 C 7.4416498,8.6531815 7.8979578,8.9041188 8.2979504,9.2035259 A 12.600573,12.600572 0 0 0 5.0865227,16.957152 C 4.5496545,16.889335 4.0125663,16.753361 3.4756991,16.546267 H 1.2679707 c -0.60463313,0 -1.09159927,0.486968 -1.09159927,1.0916 0,0.604631 0.48696614,1.091599 1.09159927,1.091599 h 2.3017605 c 0.5104263,-0.236832 1.0157083,-0.381375 1.5147472,-0.451769 a 12.600573,12.600572 0 0 0 3.182809,7.763845 C 7.8429841,26.369 7.3735653,26.650825 6.8527055,26.881706 l -1.5617632,1.561762 c -0.4275383,0.427539 -0.4275383,1.115829 0,1.543367 0.4275463,0.42754 1.1158235,0.427536 1.5433656,0 l 1.6271782,-1.629222 c 0.1917038,-0.52356 0.4426077,-0.979821 0.7420415,-1.37983 a 12.600573,12.600572 0 0 0 7.7536244,3.211427 c -0.06772,0.537545 -0.203531,1.075329 -0.410883,1.612868 v 2.20773 c 0,0.604633 0.486966,1.091599 1.091599,1.091599 0.604636,0 1.091598,-0.486966 1.091598,-1.091599 V 31.708046 C 18.492649,31.19762 18.348102,30.690294 18.277699,30.191255 a 12.600573,12.600572 0 0 0 7.757712,-3.176675 c 0.409123,0.508837 0.765538,1.068587 1.093644,1.657841 l 1.314415,1.314414 c 0.427542,0.427536 1.115826,0.427548 1.543367,0 0.427538,-0.427538 0.427538,-1.115828 0,-1.543367 l -1.326681,-1.32668 c -0.556589,-0.339743 -1.088784,-0.716214 -1.584249,-1.142703 a 12.600573,12.600572 0 0 0 3.113304,-7.647325 c 0.654752,0.06977 1.308106,0.21642 1.962426,0.402706 h 1.858173 c 0.604633,0 1.091597,-0.486964 1.091597,-1.091599 10e-7,-0.604632 -0.486964,-1.0916 -1.091597,-1.0916 h -1.87657 c -0.641145,0.155107 -1.290434,0.26488 -1.95016,0.312744 A 12.600573,12.600572 0 0 0 27.014581,9.2403224 C 27.52318,8.8314991 28.083509,8.4766402 28.67242,8.1487241 l 1.314417,-1.3144142 c 0.427538,-0.427538 0.427542,-1.1158196 0,-1.5433654 -0.427538,-0.4275418 -1.115832,-0.4275378 -1.543367,0 l -1.326679,1.326681 C 26.77709,7.1741368 26.400504,7.7044215 25.974087,8.1998283 A 12.600573,12.600572 0 0 0 18.328804,5.086523 c 0.06988,-0.6540167 0.214604,-1.3067954 0.400662,-1.960381 V 1.2679698 c 0,-0.60463303 -0.486962,-1.09159827 -1.091598,-1.09159827 z m 0.711377,6.64567157 a 10.871315,10.871314 0 0 1 6.357443,2.6022575 c -0.373516,0.2981846 -0.776583,0.5751662 -1.220385,0.8238084 l -4.756837,4.75684 V 8.2120951 c -0.191455,-0.4641088 -0.31264,-0.926406 -0.380221,-1.390052 z m -1.518834,0.00831 C 16.777191,7.3062615 16.684555,7.7869845 16.54627,8.2776365 V 15.003034 L 11.826226,10.28286 C 11.338348,10.061446 10.891676,9.7987048 10.485235,9.4958482 A 10.871315,10.871314 0 0 1 16.830411,6.8302196 Z M 9.5122009,10.466969 c 0.2952063,0.416416 0.5472981,0.872676 0.7665721,1.355301 l 4.724131,4.724127 H 8.3286123 c -0.5020355,0.188612 -1.0045336,0.321327 -1.5065697,0.39451 a 10.871315,10.871314 0 0 1 2.6901583,-6.473958 z m 16.2758621,0.02848 a 10.871315,10.871314 0 0 1 2.657453,6.332906 c -0.475188,-0.05325 -0.957408,-0.14402 -1.447289,-0.28209 h -6.725396 l 4.80181,-4.80181 c 0.192232,-0.462199 0.434405,-0.874233 0.713422,-1.248998 z M 6.8199983,18.314494 c 0.5041002,0.08564 1.0032422,0.228445 1.5004378,0.414972 h 6.6845119 l -4.722087,4.722085 c -0.221253,0.48752 -0.4823963,0.934789 -0.7849696,1.340991 A 10.871315,10.871314 0 0 1 6.8199983,18.314494 Z m 21.6336937,0.03481 a 10.871315,10.871314 0 0 1 -2.602256,6.357379 c -0.29817,-0.373512 -0.573124,-0.776578 -0.821765,-1.220379 l -4.75684,-4.756837 h 6.79081 c 0.463438,-0.191184 0.927071,-0.312585 1.390051,-0.380228 z m -9.724226,1.923583 4.80181,4.801813 c 0.462011,0.192129 0.874358,0.43455 1.249001,0.71342 a 10.871315,10.871314 0 0 1 -6.465782,2.667672 c 0.08569,-0.503425 0.22867,-1.001853 0.414971,-1.498391 z m -2.183197,0.0021 v 6.674293 c 0.188354,0.501371 0.321272,1.00315 0.394526,1.504522 a 10.871315,10.871314 0 0 1 -6.473958,-2.690218 c 0.416418,-0.295218 0.872679,-0.545252 1.355301,-0.764523 z" />
  </g>
</svg>
