<?xml version="1.0" encoding="UTF-8" standalone="no"?>
<!-- Created with Inkscape (http://www.inkscape.org/) -->

<svg
   width="100pt"
   height="100pt"
   viewBox="0 0 35.277777 35.277778"
   version="1.1"
   id="svg5"
   inkscape:version="1.1.2 (0a00cf5339, 2022-02-04)"
   sodipodi:docname="icon.svg"
   xmlns:inkscape="http://www.inkscape.org/namespaces/inkscape"
   xmlns:sodipodi="http://sodipodi.sourceforge.net/DTD/sodipodi-0.dtd"
   xmlns="http://www.w3.org/2000/svg"
   xmlns:svg="http://www.w3.org/2000/svg">
  <sodipodi:namedview
     id="namedview7"
     pagecolor="#797979"
     bordercolor="#000000"
     borderopacity="1"
     inkscape:pageshadow="2"
     inkscape:pageopacity="0"
     inkscape:pagecheckerboard="true"
     inkscape:document-units="pt"
     showgrid="false"
     showguides="false"
     units="pt"
     width="283.46457pt"
     inkscape:showpageshadow="false"
     inkscape:zoom="4.3994184"
     inkscape:cx="62.849217"
     inkscape:cy="85.806797"
     inkscape:window-width="1920"
     inkscape:window-height="1016"
     inkscape:window-x="0"
     inkscape:window-y="27"
     inkscape:window-maximized="1"
     inkscape:current-layer="layer1" />
  <defs
     id="defs2" />
  <g
     inkscape:label="Layer 1"
     inkscape:groupmode="layer"
     id="layer1">
    <circle
       style="fill:#22170b;fill-opacity:1;stroke:none;stroke-width:0.752722;stroke-linecap:round;stroke-linejoin:round;stroke-miterlimit:4;stroke-dasharray:none;stroke-opacity:1"
       id="circle9978"
       cx="16.328339"
       cy="16.572754"
       r="15.006112" />
    <path
       id="path8911"
       style="fill:#eadbb7;fill-opacity:1;stroke:#492b06;stroke-width:0.52916668;stroke-linecap:butt;stroke-linejoin:miter;stroke-opacity:1;stroke-miterlimit:4;stroke-dasharray:none;paint-order:markers stroke fill"
       d="m 17.638889,1.5911064 -2.469444,2.4592139 c 2.078856,-0.3359355 2.851122,-0.3448216 4.938889,0.01553 z m 0.715132,26.3847726 v 0.323492 q -0.188841,-0.09032 -0.356333,-0.134652 -0.167494,-0.04434 -0.323491,-0.04434 -0.270945,0 -0.418732,0.105094 -0.146146,0.105093 -0.146146,0.29886 0,0.162566 0.09688,0.246313 0.09853,0.0821 0.371112,0.133009 l 0.200334,0.04105 q 0.371112,0.07061 0.546815,0.249597 0.177346,0.177346 0.177346,0.476205 0,0.356333 -0.239745,0.540247 -0.238103,0.183914 -0.699529,0.183914 -0.174061,0 -0.371112,-0.03941 -0.195408,-0.03941 -0.405595,-0.116589 v -0.341554 q 0.201976,0.113304 0.395742,0.170778 0.193767,0.05747 0.380965,0.05747 0.28408,0 0.438437,-0.111662 0.154356,-0.111662 0.154356,-0.318565 0,-0.180629 -0.111662,-0.282438 -0.110019,-0.101809 -0.362901,-0.152714 l -0.201977,-0.03941 q -0.371111,-0.07389 -0.536962,-0.231534 -0.165851,-0.15764 -0.165851,-0.438437 0,-0.325133 0.22825,-0.512331 0.229892,-0.187198 0.632203,-0.187198 0.17242,0 0.351407,0.0312 0.178988,0.0312 0.366186,0.0936 z m 9.920732,-11.562807 h 1.55013 v 0.279155 h -1.218428 v 0.725802 h 1.167523 v 0.279154 h -1.167523 v 0.888369 h 1.247986 v 0.279155 h -1.579688 z m -23.083637,0 h 0.3349857 l 0.515615,2.072313 0.5139736,-2.072313 h 0.3727532 l 0.5156157,2.072313 0.5139729,-2.072313 H 8.2946599 L 7.678877,18.864707 H 7.2617871 L 6.7445301,16.736563 6.222346,18.864707 H 5.8052561 Z M 16.71111,5.0314723 h 0.446648 l 1.087061,2.0509665 V 5.0314723 h 0.321849 V 7.4831079 H 18.12002 L 17.032959,5.4321416 V 7.4831079 H 16.71111 Z m 0.927562,-0.8478786 c -7.427064,0 -13.4550783,6.0280143 -13.4550783,13.4550783 10e-8,7.427064 6.0280143,13.455078 13.4550783,13.455078 7.427064,0 13.455078,-6.028014 13.455078,-13.455078 0,-7.427064 -6.028014,-13.4550783 -13.455078,-13.4550783 z m 0,0.6582032 c 7.071237,0 12.796875,5.7256381 12.796875,12.7968751 0,7.071237 -5.725638,12.796875 -12.796875,12.796875 -7.071237,0 -12.7968751,-5.725638 -12.7968751,-12.796875 0,-7.071237 5.7256381,-12.7968751 12.7968751,-12.7968751 z" />
  </g>
</svg>
