<?xml version="1.0" encoding="UTF-8" standalone="no"?>
<!-- Created with Inkscape (http://www.inkscape.org/) -->

<svg
   width="100pt"
   height="50pt"
   viewBox="0 0 35.277777 17.638889"
   version="1.1"
   id="svg5"
   inkscape:version="1.1.2 (0a00cf5339, 2022-02-04)"
   sodipodi:docname="logo.svg"
   inkscape:export-filename="/home/jcrowder/Desktop/projects/yarr/src/assets/icons/apple-touch-icon.png"
   inkscape:export-xdpi="129.60001"
   inkscape:export-ydpi="129.60001"
   xmlns:inkscape="http://www.inkscape.org/namespaces/inkscape"
   xmlns:sodipodi="http://sodipodi.sourceforge.net/DTD/sodipodi-0.dtd"
   xmlns="http://www.w3.org/2000/svg"
   xmlns:svg="http://www.w3.org/2000/svg">
  <sodipodi:namedview
     id="namedview7"
     pagecolor="#797979"
     bordercolor="#000000"
     borderopacity="1"
     inkscape:pageshadow="2"
     inkscape:pageopacity="0"
     inkscape:pagecheckerboard="true"
     inkscape:document-units="pt"
     showgrid="false"
     showguides="false"
     units="pt"
     width="283.46457pt"
     inkscape:showpageshadow="false"
     inkscape:zoom="4.3994184"
     inkscape:cx="75.009915"
     inkscape:cy="65.804153"
     inkscape:window-width="1551"
     inkscape:window-height="1082"
     inkscape:window-x="1614"
     inkscape:window-y="833"
     inkscape:window-maximized="0"
     inkscape:current-layer="layer1"
     height="50pt"
     inkscape:snap-global="false" />
  <defs
     id="defs2">
    <rect
       x="-12.905897"
       y="61.173885"
       width="101.33811"
       height="61.113537"
       id="rect39770" />
  </defs>
  <g
     inkscape:label="Layer 1"
     inkscape:groupmode="layer"
     id="layer1">
    <path
       id="path32743"
       style="fill:#d39629;fill-opacity:1;stroke:#36290a;stroke-width:0.322653;stroke-miterlimit:4;stroke-dasharray:none;stroke-opacity:1"
       d="m 8.1465449,0.17548504 c -0.2765013,0 -0.4991929,0.2226913 -0.4991929,0.49919271 V 1.5328417 c 0.070914,0.2931258 0.1211188,0.5892638 0.1430269,0.890881 A 5.7622969,5.7622964 0 0 0 4.3035067,3.8754957 C 4.1538055,3.6814907 4.0257934,3.4667447 3.9202313,3.2286017 l -0.7142014,-0.7142 c -0.1955148,-0.1955168 -0.510273,-0.1955168 -0.7057878,0 -0.1955151,0.195515 -0.1955166,0.510272 0,0.705788 l 0.7441152,0.744114 c 0.2394127,0.08766 0.4480843,0.202418 0.6310026,0.339338 a 5.7622969,5.7622964 0 0 0 -1.4685998,3.545767 c -0.2455122,-0.03101 -0.4911249,-0.09319 -0.7366366,-0.1879 H 0.6605197 c -0.27650136,0 -0.49919309,0.222694 -0.49919309,0.499194 0,0.2765 0.22269173,0.499194 0.49919309,0.499194 H 1.7131248 C 1.946545,8.5515917 2.1776126,8.4854917 2.4058253,8.4532997 a 5.7622969,5.7622964 0 0 0 1.4555123,3.5504393 c -0.1940358,0.149748 -0.408703,0.278628 -0.6468944,0.384211 l -0.7142011,0.714201 c -0.1955151,0.195515 -0.1955151,0.510273 0,0.705788 0.1955187,0.195516 0.5102709,0.195515 0.7057878,0 l 0.7441156,-0.74505 c 0.087668,-0.239427 0.2024065,-0.448077 0.3393389,-0.631003 a 5.7622969,5.7622964 0 0 0 3.5457661,1.4686 c -0.030968,0.245822 -0.093076,0.491753 -0.1878985,0.737571 v 1.009606 c 0,0.276501 0.2226916,0.499192 0.4991929,0.499192 0.2765027,0 0.4991925,-0.222691 0.4991925,-0.499192 V 14.595057 C 8.53744,14.361637 8.471338,14.129634 8.4391424,13.901421 a 5.7622969,5.7622964 0 0 0 3.5476356,-1.452707 c 0.187094,0.232693 0.350083,0.48867 0.500128,0.758138 l 0.601088,0.601087 c 0.195516,0.195515 0.510272,0.19552 0.705788,0 0.195515,-0.195515 0.195515,-0.510273 0,-0.705788 l -0.606697,-0.606697 c -0.254531,-0.155366 -0.497906,-0.327528 -0.724484,-0.522563 a 5.7622969,5.7622964 0 0 0 1.423727,-3.4971543 c 0.299422,0.03191 0.598203,0.09897 0.897426,0.18416 h 0.849752 c 0.276501,0 0.499191,-0.222692 0.499191,-0.499194 1e-6,-0.2765 -0.22269,-0.499194 -0.499191,-0.499194 h -0.858165 c -0.293198,0.07093 -0.59012,0.121132 -0.891816,0.14302 a 5.7622969,5.7622964 0 0 0 -1.448968,-3.48406 c 0.232584,-0.186956 0.488825,-0.349235 0.758136,-0.499192 l 0.601089,-0.601087 c 0.195515,-0.195516 0.195517,-0.51027 0,-0.705788 -0.195515,-0.1955168 -0.510275,-0.1955149 -0.705788,0 l -0.606697,0.606697 c -0.155346,0.254495 -0.327561,0.496996 -0.522563,0.723549 A 5.7622969,5.7622964 0 0 0 8.462513,2.4209188 C 8.4944694,2.1218342 8.5606523,1.8233156 8.6457374,1.524428 V 0.67467775 c 0,-0.27650141 -0.2226898,-0.49919271 -0.4991925,-0.49919271 z M 8.4718608,3.2145797 a 4.9714997,4.9714992 0 0 1 2.9072862,1.190023 c -0.170811,0.136362 -0.355135,0.263027 -0.558088,0.376731 L 8.6457374,6.9566577 V 3.8502567 C 8.5581843,3.6380177 8.5027658,3.4266067 8.4718608,3.2145797 Z m -0.6945695,0.0038 c -0.024337,0.217635 -0.0667,0.437472 -0.1299389,0.661849 v 3.07555 L 5.4888558,4.7972257 C 5.265747,4.6959727 5.061482,4.5758197 4.8756147,4.4373227 a 4.9714997,4.9714992 0 0 1 2.9016766,-1.219004 z m -3.3466493,1.66308 c 0.1349992,0.190429 0.2502818,0.399079 0.3505568,0.619785 l 2.1603656,2.160364 H 3.8893818 c -0.2295831,0.08625 -0.4593776,0.146944 -0.6889609,0.180411 A 4.9714997,4.9714992 0 0 1 4.430642,4.8814507 Z m 7.443022,0.01303 a 4.9714997,4.9714992 0 0 1 1.215265,2.896066 c -0.217306,-0.024354 -0.437827,-0.06586 -0.661852,-0.129005 H 9.3515249 l 2.1958881,-2.195888 c 0.08791,-0.211366 0.198655,-0.399791 0.326251,-0.571173 z m -8.6741779,3.575683 c 0.2305271,0.03916 0.458787,0.104469 0.6861567,0.189769 h 3.0568564 l -2.159431,2.1593863 c -0.1011799,0.222946 -0.2206019,0.427483 -0.35897,0.613241 A 4.9714997,4.9714992 0 0 1 3.1994861,8.4701277 Z m 9.8931819,0.01591 A 4.9714997,4.9714992 0 0 1 11.902645,11.393341 C 11.766291,11.222533 11.640553,11.038209 11.526849,10.835257 L 9.3515249,8.6598967 h 3.1054671 c 0.211932,-0.08743 0.423954,-0.142947 0.635676,-0.17388 z m -4.4469306,0.879663 2.1958886,2.1958893 c 0.211279,0.08786 0.399848,0.198722 0.571173,0.32625 a 4.9714997,4.9714992 0 0 1 -2.9568296,1.219938 c 0.039186,-0.230219 0.1045717,-0.458152 0.189768,-0.68522 z m -0.9983854,9.6e-4 v 3.0521833 c 0.086135,0.229279 0.146919,0.458745 0.1804184,0.688024 A 4.9714997,4.9714992 0 0 1 4.8672013,11.876628 c 0.1904297,-0.135005 0.3990798,-0.249346 0.619785,-0.349619 z" />
    <path
       id="path58969"
       style="font-weight:bold;font-size:40px;line-height:1.25;font-family:Manjari;-inkscape-font-specification:'Manjari Bold';text-align:center;text-anchor:middle;white-space:pre;fill:#f5d5a2;fill-opacity:1;stroke:#3c3530;stroke-width:0.322654;stroke-miterlimit:4;stroke-dasharray:none;stroke-opacity:1"
       d="m 9.7934922,8.307501 c -1.0122619,0.08912 -0.494876,1.311672 -0.055295,1.771672 0.7025218,1.191081 1.4050448,2.382163 2.1075658,3.573243 0.119441,1.199533 -0.31087,2.456519 0.167575,3.611727 1.404856,0.484585 1.054957,-1.590147 1.01372,-2.397311 -0.08008,-1.174532 0.593661,-2.146159 1.197839,-3.079012 0.526931,-0.88557 1.052201,-1.772486 1.545556,-2.677349 0.155106,-1.096162 -1.509661,-0.742275 -1.485114,0.146081 -0.599477,1.046081 -1.198955,2.092161 -1.798433,3.138242 -0.80583,-1.320724 -1.494327,-2.712975 -2.37594,-3.987086 L 9.9600727,8.332648 9.7934894,8.307518 Z M 34.274062,8.757534 c -1.088451,0.785288 -0.147936,2.340715 -0.414877,3.456872 0.181044,0.94158 -0.262849,2.266252 0.36344,2.955507 0.715751,-0.282794 0.324937,-1.395673 0.432218,-2.042137 0.03727,-1.312901 0.07453,-2.625803 0.111793,-3.938703 C 34.761636,8.936622 34.50913,8.759486 34.27406,8.757534 Z M 22.270507,10.49602 c -0.733143,-0.192534 -0.414732,1.740292 -1.053801,0.692785 -1.399415,-1.270068 -3.801608,-0.619096 -4.635357,0.998854 -1.036045,1.711792 -0.298015,4.253817 1.612556,4.981261 1.129823,0.476588 2.611479,0.288674 3.401463,-0.711519 -0.160168,1.07497 1.475402,1.350649 1.266267,0.11147 0.07413,-1.690138 -0.06288,-3.380729 0.05848,-5.065834 5.49e-4,-0.42931 -0.200777,-0.887258 -0.6496,-1.007022 z m 2.336474,0.02465 c -1.074015,0.737432 -0.267219,2.214717 -0.513077,3.280737 0.006,1.101119 -0.05433,2.205147 0.04835,3.303648 0.8028,0.961011 1.569791,-0.554285 1.187968,-1.301738 0.01989,-1.184235 -0.146718,-2.422769 0.243226,-3.561392 0.42462,-1.242128 2.830755,0.267853 2.511365,-1.240124 -0.742803,-0.976909 -2.025176,-0.429169 -2.74626,0.247832 -0.364782,-0.111973 -0.167704,-0.793878 -0.731567,-0.728963 z m 4.857892,0 c -1.074016,0.737432 -0.267219,2.214717 -0.513076,3.280737 0.006,1.101119 -0.05433,2.205147 0.04835,3.303648 0.802799,0.961011 1.569792,-0.554285 1.187969,-1.301738 0.01989,-1.184235 -0.146718,-2.422769 0.243224,-3.561394 0.424622,-1.242126 2.830757,0.267857 2.511366,-1.24012 -0.742803,-0.976911 -2.025176,-0.429171 -2.74626,0.24783 C 29.831668,11.13766 30.028738,10.45576 29.46488,10.52067 Z m -9.999367,1.214472 c 1.74902,-0.08301 2.801756,2.315168 1.687333,3.613727 -0.84684,1.211592 -2.946352,1.060049 -3.571,-0.300823 -0.767144,-1.349028 0.252037,-3.389723 1.883667,-3.312904 z m 14.839381,4.494169 c -1.320061,0.0423 0.112259,2.063216 0.563035,0.784082 0.118855,-0.356885 -0.165985,-0.814769 -0.563035,-0.784082 z" />
  </g>
</svg>
